<?xml version="1.0" standalone="no"?>
<!DOCTYPE svg PUBLIC "-//W3C//DTD SVG 1.1//EN" "http://www.w3.org/Graphics/SVG/1.1/DTD/svg11.dtd" >

<svg>
<metadata>
Created by webfont
</metadata>
<defs>

<font id="zcool-gdh" horiz-adv-x="1080" vert-adv-y="1080" >
  <font-face
    
    font-family="zcool-gdh"
    
    font-weight="400"
    
    font-stretch="normal"
    
    units-per-em="1000"
    
    ascent="860"
    
    descent="-141"
    
  />
    <missing-glyph />
    
    <glyph glyph-name="uni4EBA" unicode="&#x4EBA;" d="M441 452L442 452L442 668L558 668L558 452L557 451L903 53L787 53L499 384L211 53L96 53L441 451L441 452Z"  horiz-adv-x="1000" vert-adv-y="1000"  />

    
    <glyph glyph-name="uni4F7F" unicode="&#x4F7F;" d="M667 193L549 193L428 53L277 53L398 193L304 193L277 240L438 240L475 283L312 283L312 524L537 524L537 559L310 559L310 607L537 607L537 668L663 668L663 607L879 607L838 559L663 559L663 524L888 524L888 283L626 283L589 240L777 240L939 53L788 53L667 193M207 414L254 414L254 53L139 53L139 367L61 367L191 663L310 663L207 414M663 478L663 329L778 329L778 511L741 478L663 478M425 329L537 329L537 478L425 478L425 329Z"  horiz-adv-x="1000" vert-adv-y="1000"  />

    
    <glyph glyph-name="uni518C" unicode="&#x518C;" d="M148 368L71 368L71 413L148 413L148 667L361 667L334 621L264 621L264 413L361 413L361 667L478 667L478 413L519 413L519 667L851 667L851 413L929 413L903 368L851 368L851 53L688 53L663 98L733 98L733 368L635 368L635 281L600 53L484 53L519 281L519 368L478 368L478 53L315 53L291 98L361 98L361 368L264 368L264 281L229 53L113 53L148 281L148 368M635 413L733 413L733 653L715 621L635 621L635 413Z"  horiz-adv-x="1000" vert-adv-y="1000"  />

    
    <glyph glyph-name="uni53BB" unicode="&#x53BB;" d="M885 608L854 561L558 561L558 387L885 387L854 341L386 341L264 106L727 123L660 260L776 260L878 53L762 53L750 76L239 57L239 56L115 53L264 341L115 341L115 387L443 387L443 561L115 561L115 608L443 608L443 668L558 668L558 608L885 608Z"  horiz-adv-x="1000" vert-adv-y="1000"  />

    
    <glyph glyph-name="uni53F7" unicode="&#x53F7;" d="M128 441L128 650L751 650L707 606L245 606L245 485L752 485L752 650L868 650L868 441L128 441M356 334L284 252L863 252L863 71L496 71L496 115L745 115L745 208L123 208L233 334L75 334L75 380L924 380L891 334L356 334Z"  horiz-adv-x="1000" vert-adv-y="1000"  />

    
    <glyph glyph-name="uni56DE" unicode="&#x56DE;" d="M888 69L111 69L111 651L764 651L742 607L235 607L235 113L764 113L764 651L888 651L888 69M686 213L317 213L317 521L577 521L556 477L426 477L426 257L577 257L577 521L686 521L686 213Z"  horiz-adv-x="1000" vert-adv-y="1000"  />

    
    <glyph glyph-name="uni5BC6" unicode="&#x5BC6;" d="M110 54L110 64L109 64L109 246L223 246L223 102L446 102L446 280L560 280L560 102L782 102L756 54L110 54M897 52L783 52L783 267L897 267L897 52M904 538L792 538L792 626L769 582L209 582L209 538L95 538L95 629L444 629L444 669L559 669L559 629L904 629L904 538M110 320L287 383L287 536L408 536L408 426L522 467L469 467L430 563L550 563L581 488L762 552L762 508L408 382L408 335L764 335L736 291L287 291L287 339L110 276L110 320M227 375L111 375L140 502L256 502L227 375M882 343L761 343L716 484L835 484L882 343Z"  horiz-adv-x="1000" vert-adv-y="1000"  />

    
    <glyph glyph-name="uni5DF2" unicode="&#x5DF2;" d="M753 403L753 668L866 668L866 355L221 355L221 100L902 100L876 53L109 53L109 506L221 506L221 403L753 403M727 621L98 621L98 668L753 668L727 621Z"  horiz-adv-x="1000" vert-adv-y="1000"  />

    
    <glyph glyph-name="uni5E94" unicode="&#x5E94;" d="M585 621L938 621L903 575L213 575L213 215L175 52L61 52L97 219L97 621L471 621L471 668L585 668L585 621M938 52L222 52L222 96L673 96L773 517L894 517L792 96L938 96L938 52M312 138L255 488L366 488L422 138L312 138M526 138L468 488L579 488L635 138L526 138Z"  horiz-adv-x="1000" vert-adv-y="1000"  />

    
    <glyph glyph-name="uni5F55" unicode="&#x5F55;" d="M561 434L561 336L665 336L676 321L744 395L884 395L744 242L735 242L875 55L742 55L561 299L561 55L349 55L332 99L435 99L435 434L117 434L117 479L726 479L726 530L179 530L179 574L726 574L726 665L848 665L848 479L904 479L879 434L561 434M397 261L231 55L96 55L262 261L397 261M698 620L122 620L122 665L726 665L698 620M141 393L271 393L371 284L246 284L141 393Z"  horiz-adv-x="1000" vert-adv-y="1000"  />

    
    <glyph glyph-name="uni5FD8" unicode="&#x5FD8;" d="M836 345L144 345L144 540L88 540L88 585L466 585L443 670L580 670L603 585L904 585L874 540L282 540L282 390L866 390L836 345M737 96L755 52L304 52L304 296L420 296L420 96L737 96M148 298L269 298L206 52L85 52L148 298M825 296L915 51L795 51L706 296L825 296M469 296L588 296L646 152L527 152L469 296Z"  horiz-adv-x="1000" vert-adv-y="1000"  />

    
    <glyph glyph-name="uni60A8" unicode="&#x60A8;" d="M910 309L791 309L724 515L801 515L815 570L465 567L449 522L331 522L384 669L501 669L482 615L930 615L903 480L851 480L910 309M318 666L226 516L262 516L262 281L146 281L146 468L69 468L199 666L318 666M312 54L312 245L428 245L428 98L746 98L746 54L312 54M523 281L498 327L569 327L569 553L686 553L686 281L523 281M402 515L517 515L450 309L331 309L402 515M214 54L93 54L174 247L295 247L214 54M923 52L803 52L714 245L833 245L923 52M654 154L535 154L477 245L596 245L654 154Z"  horiz-adv-x="1000" vert-adv-y="1000"  />

    
    <glyph glyph-name="uni627E" unicode="&#x627E;" d="M887 504L637 471L660 373L742 449L872 449L684 272L725 104L911 104L878 53L615 53L586 179L493 91L360 91L562 281L522 456L372 437L372 481L513 498L474 668L590 668L627 513L908 548L887 504M384 551L324 551L324 370L388 389L388 342L324 322L324 52L122 52L102 96L209 96L209 287L88 251L88 300L209 336L209 551L88 551L88 595L209 595L209 668L324 668L324 595L405 595L384 551M705 556L682 652L781 652L803 556L705 556Z"  horiz-adv-x="1000" vert-adv-y="1000"  />

    
    <glyph glyph-name="uni62E9" unicode="&#x62E9;" d="M185 102L185 265L96 247L96 297L185 316L185 511L96 511L96 556L185 556L185 663L297 663L297 556L380 556L362 511L297 511L297 339L376 354L376 304L297 288L297 58L108 58L87 102L185 102M880 541L737 471L913 367L758 367L652 429L525 367L362 367L577 473L398 579L554 579L662 515L777 571L777 610L387 610L387 654L880 654L880 541M582 184L582 253L387 253L387 301L582 301L582 365L685 365L685 301L902 301L878 253L685 253L685 184L902 184L878 136L685 136L685 58L582 58L582 136L387 136L387 184L582 184Z"  horiz-adv-x="1000" vert-adv-y="1000"  />

    
    <glyph glyph-name="uni6709" unicode="&#x6709;" d="M436 668L403 614L915 614L888 567L374 567L332 497L778 497L752 450L357 450L357 364L778 364L778 497L899 497L899 53L686 53L661 99L778 99L778 183L357 183L357 53L235 53L235 340L94 340L234 567L84 567L84 614L263 614L296 668L436 668M357 316L357 230L778 230L778 316L357 316Z"  horiz-adv-x="1000" vert-adv-y="1000"  />

    
    <glyph glyph-name="uni672C" unicode="&#x672C;" d="M558 660L558 569L891 569L870 522L558 522L558 222L738 222L603 469L724 469L928 88L810 88L745 208L719 174L558 174L558 60L442 60L442 174L258 174L258 222L442 222L442 522L391 522L196 87L72 87L266 522L114 522L114 569L442 569L442 660L558 660Z"  horiz-adv-x="1000" vert-adv-y="1000"  />

    
    <glyph glyph-name="uni6B22" unicode="&#x6B22;" d="M422 621L422 422L339 291L455 87L609 401L609 507L715 507L715 380L687 321L779 321L916 68L802 68L676 300L565 68L465 68L465 66L337 66L272 182L201 66L83 66L215 280L106 473L236 473L285 389L316 440L316 573L127 573L127 621L422 621M618 654L585 600L899 600L899 449L788 449L788 556L430 556L501 654L618 654Z"  horiz-adv-x="1000" vert-adv-y="1000"  />

    
    <glyph glyph-name="uni6CA1" unicode="&#x6CA1;" d="M613 231Q671 264 720.50 292.50Q770 321 805 340L805 366L321 366L321 411L906 411L906 291Q861 267 809 237Q757 207 702 175L895 53L740 53L621 129Q584 108 548.50 88.50Q513 69 480 52L288 52Q339 78 403 113Q467 148 533 186L325 318L475 318L613 231M724 622L469 622L469 493L411 434L301 434L357 493L357 668L750 668L724 622M145 352L260 352L182 54L66 54L145 352M66 535L131 535L66 668L182 668L250 529L185 529L250 394L134 394L66 535M862 482L934 482L908 435L750 435L750 668L862 668L862 482Z"  horiz-adv-x="1000" vert-adv-y="1000"  />

    
    <glyph glyph-name="uni6CE8" unicode="&#x6CE8;" d="M647 106L909 106L883 58L278 58L278 106L533 106L533 313L342 313L342 360L533 360L533 514L308 514L308 562L524 562L490 664L611 664L645 562L893 562L866 514L647 514L647 360L859 360L832 313L647 313L647 106M275 529L211 529L275 394L160 394L91 534L156 534L91 667L207 667L275 529M286 351L207 53L91 53L170 351L286 351Z"  horiz-adv-x="1000" vert-adv-y="1000"  />

    
    <glyph glyph-name="uni7528" unicode="&#x7528;" d="M108 668L926 668L926 53L713 53L689 99L814 99L814 276L572 276L572 53L460 53L460 276L220 276L220 228L185 53L73 53L108 228L108 668M814 668L789 621L572 621L572 494L814 494L814 668M814 322L814 448L572 448L572 322L814 322M220 621L220 494L460 494L460 621L220 621M460 322L460 448L220 448L220 322L460 322Z"  horiz-adv-x="1000" vert-adv-y="1000"  />

    
    <glyph glyph-name="uni767B" unicode="&#x767B;" d="M747 668L847 668L789 560L817 530L849 585L940 585L876 468L954 387L845 387L845 227L166 227L166 387L45 387L148 476L89 585L203 585L226 544L319 624L85 624L85 668L474 668L474 624L330 499L691 499L531 668L687 668L724 628L747 668M942 100L916 53L63 53L63 100L236 100L191 203L312 203L355 100L661 100L705 203L827 203L780 100L942 100M720 387L694 340L288 340L288 274L722 274L722 387L798 387L737 451L274 451L201 387L720 387Z"  horiz-adv-x="1000" vert-adv-y="1000"  />

    
    <glyph glyph-name="uni7684" unicode="&#x7684;" d="M344 551L179 551L179 380L370 380L370 599L484 599L484 53L65 53L65 598L84 598L84 599L196 599L222 668L343 668L318 599L370 599L344 551M629 53L604 99L818 99L818 595L935 595L935 53L629 53M179 100L370 100L370 332L179 332L179 100M791 548L646 548L612 450L491 450L567 668L688 668L662 595L818 595L791 548M617 194L491 405L614 405L741 194L617 194Z"  horiz-adv-x="1000" vert-adv-y="1000"  />

    
    <glyph glyph-name="uni7801" unicode="&#x7801;" d="M403 447L403 53L158 53L158 361L79 361L198 617L119 617L119 665L408 665L392 617L323 617L241 447L403 447M892 667L857 401L920 401L920 52L605 52L582 97L802 97L802 357L438 357L476 580L590 580L561 401L739 401L774 667L892 667M781 252L755 207L446 207L446 252L781 252M437 622L437 667L773 667L739 622L437 622M268 98L299 98L299 401L268 401L268 98M774 667L773 667L774 668L774 667Z"  horiz-adv-x="1000" vert-adv-y="1000"  />

    
    <glyph glyph-name="uni8BB0" unicode="&#x8BB0;" d="M325 541L202 541L132 668L257 668L325 541M281 169L355 208L332 138L167 52L167 441L109 441L109 485L281 485L281 169M394 608L394 654L848 654L848 383L506 383L506 118L890 118L867 75L394 75L394 427L736 427L736 608L394 608Z"  horiz-adv-x="1000" vert-adv-y="1000"  />

    
    <glyph glyph-name="uni8BF7" unicode="&#x8BF7;" d="M287 522L171 522L134 658L250 658L287 522M146 57L146 418L87 418L87 465L262 465L262 152L332 178L332 125L146 57M502 214L502 175L774 175L774 214L502 214M737 302L502 302L502 258L774 258L774 342L737 302M703 56L679 100L774 100L774 130L502 130L502 56L381 56L381 347L895 347L895 56L703 56M697 565L697 524L878 524L857 476L697 476L697 433L913 433L881 388L376 388L376 433L581 433L581 476L403 476L403 524L581 524L581 565L382 565L382 611L581 611L581 664L697 664L697 611L906 611L887 565L697 565Z"  horiz-adv-x="1000" vert-adv-y="1000"  />

    
    <glyph glyph-name="uni8D26" unicode="&#x8D26;" d="M206 53L88 53L222 261L222 550L324 550L324 245L367 245L474 77L373 77L296 199L206 53M188 267L88 267L88 643L455 643L455 267L355 267L355 601L188 601L188 267M773 653L889 653L810 471L694 471L773 653M880 393L780 393L911 53L795 53L664 393L621 393L621 100L719 100L692 53L506 53L506 393L477 393L477 440L506 440L506 668L621 668L621 440L909 440L880 393Z"  horiz-adv-x="1000" vert-adv-y="1000"  />

    
    <glyph glyph-name="uni8FCE" unicode="&#x8FCE;" d="M798 264L798 602L689 602L689 123L577 123L577 649L912 649L912 218L746 218L722 264L798 264M244 101L921 101L900 55L278 55L241 96L211 55L78 55L78 101L128 101L128 429L78 429L78 474L244 474L244 101M410 606L410 254L538 267L538 220L298 195L298 643L535 665L535 618L410 606M92 664L213 664L267 530L144 530L92 664Z"  horiz-adv-x="1000" vert-adv-y="1000"  />

    
    <glyph glyph-name="uni9009" unicode="&#x9009;" d="M624 126L624 372L551 372L407 126L288 126L432 372L288 372L288 416L544 416L544 549L432 549L407 471L288 471L348 655L467 655L447 593L544 593L544 667L658 667L658 593L873 593L845 549L658 549L658 416L916 416L888 372L738 372L738 173L933 173L907 126L624 126M229 99L938 99L916 54L262 54L225 94L195 54L62 54L62 99L113 99L113 427L62 427L62 473L229 473L229 99M197 667L251 529L129 529L76 667L197 667Z"  horiz-adv-x="1000" vert-adv-y="1000"  />

    
    <glyph glyph-name="uniFF1F" unicode="&#xFF1F;" d="M761 306L567 252L567 185L363 185L363 341L560 392L560 529L254 529L254 605L761 605L761 306M567 155L567 31L363 31L363 155L567 155Z"  horiz-adv-x="1000" vert-adv-y="1000"  />

    

  </font>
</defs>
</svg>
